#N canvas -11 -11 1920 956 12;
#X msg 14 24 devices;
#X obj 14 80 comport 3 9600;
#X msg 81 25 open 3;
#X msg 141 25 close;
#X obj 12 135 s;
#X obj 12 114 serial_print any;
#X floatatom 8 215 5 0 0 0 - - -;
#X floatatom 48 215 5 0 0 0 - - -;
#X floatatom 89 215 5 0 0 0 - - -;
#X obj 8 191 unpack f f f;
#N canvas 0 50 450 250 (subpatch) 0;
#X array trigger 2 float 1;
#A 0 0.5 0.5;
#X array time_scale 1 float 1;
#A 0 0;
#X array volt_scale 1 float 1;
#A 0 0;
#X coords 0 1 1 0 200 140 1 0 0;
#X restore 524 466 graph;
#X obj 480 222 r trigger_values;
#X obj 897 295 r time_scale_values;
#X obj 820 25 r volt_scale_values;
#X text 392 192 first term is starting index next terms are sequential
values;
#X obj 481 250 select 1;
#X obj 553 250 select 5;
#X msg 972 359 \; trigger resize 6;
#X msg 789 359 \; trigger resize 2;
#X obj 898 324 select 1;
#X obj 970 324 select 5;
#X obj 820 51 select 1;
#X obj 892 51 select 5;
#X text 1065 492 bounds: left most value \, top most value \, right
most value \, and bottom most value;
#X text 1239 534 the most recent bound call changes the canvas for
all arrays in the canvas;
#X msg 1069 621 \; trigger bounds 0 5 1 0;
#X msg 1069 553 \; trigger bounds 0 5 1 0;
#X msg 305 360 \; trigger bounds 0 5 5 0;
#X msg 820 77 \; volt_scale ylabel -0.05 0 1 0.25 0.5 0.75, f 63;
#X msg 818 151 \; volt_scale ylabel -0.05 0 2 4 6 8 10, f 63;
#X msg 819 461 \; trigger bounds 0 10 10 0;
#X msg 1249 360 \; trigger resize 11;
#X msg 480 315 \; trigger 0 1 1 1 1 1 1 1 1 1 1 1 1;
#X msg 478 358 \; trigger 0 5 5 5 5 5 5 5 5 5 5 5 5;
#X msg 481 276 \; trigger 0 0.5 0.5 0.5 0.5 0.5 0.5 0.5 0.5 0.5 0.5
0.5;
#X msg 819 115 \; volt_scale ylabel -0.05 0 1 2.5 5, f 63;
#X msg 971 395 \; time_scale xlabel -0.05 0 1 2 3 4 5;
#X msg 788 395 \; time_scale xlabel -0.05 0 1;
#X msg 1247 396 \; time_scale xlabel -0.05 0 1 2 3 4 5 6 7 8 9 10;
#X obj 8 167 r values:;
#X symbolatom 192 64 10 0 0 0 - - -;
#X obj 622 253 select 9;
#X obj 1043 323 select 9;
#X obj 961 54 select 9;
#X obj 6 263 send trigger_values;
#X obj 107 237 send volt_scale_values;
#X obj 55 288 send time_scale_values;
#X msg 281 443 \; trigger bounds 0 1 1 0;
#X connect 0 0 1 0;
#X connect 1 0 5 0;
#X connect 2 0 1 0;
#X connect 3 0 1 0;
#X connect 5 0 4 0;
#X connect 5 1 4 1;
#X connect 6 0 44 0;
#X connect 7 0 46 0;
#X connect 8 0 45 0;
#X connect 9 0 6 0;
#X connect 9 1 7 0;
#X connect 9 2 8 0;
#X connect 11 0 15 0;
#X connect 11 0 16 0;
#X connect 11 0 41 0;
#X connect 12 0 19 0;
#X connect 12 0 20 0;
#X connect 12 0 42 0;
#X connect 13 0 21 0;
#X connect 13 0 22 0;
#X connect 13 0 43 0;
#X connect 15 0 34 0;
#X connect 15 0 47 0;
#X connect 16 0 32 0;
#X connect 16 0 27 0;
#X connect 19 0 18 0;
#X connect 19 0 37 0;
#X connect 20 0 17 0;
#X connect 20 0 36 0;
#X connect 21 0 28 0;
#X connect 22 0 35 0;
#X connect 39 0 9 0;
#X connect 41 0 33 0;
#X connect 41 0 30 0;
#X connect 42 0 31 0;
#X connect 42 0 38 0;
#X connect 43 0 29 0;
